<svg version="1.1" id="Layer_1" xmlns:x="ns_extend;" xmlns:i="ns_ai;" xmlns:graph="ns_graphs;" xmlns="http://www.w3.org/2000/svg" xmlns:xlink="http://www.w3.org/1999/xlink" x="0px" y="0px" viewBox="0 0 133.1 88.3" style="enable-background:new 0 0 133.1 88.3;" xml:space="preserve">
 <style type="text/css">
  .st0{fill:#0049c8;}
 </style>
 <metadata>
  <sfw xmlns="ns_sfw;">
   <slices>
   </slices>
   <sliceSourceBounds bottomLeftOrigin="true" height="88.3" width="133.1" x="-217" y="78.7">
   </sliceSourceBounds>
  </sfw>
 </metadata>
 <g>
  <g>
   <g id="anglais_2">
    <g id="Groupe_55153" transform="translate(0 15)">
     <g id="Groupe_55152" transform="translate(0.14)">
      <path id="Tracé_102" class="st0" d="M83.6-9.2c-9.5-7.7-23-7.7-32.5,0c-4.4,3.9-6.9,9.5-6.8,15.4v18.4
						c-0.1,5.9,2.4,11.5,6.8,15.4c9.5,7.7,23,7.7,32.5,0c4.4-3.9,6.9-9.5,6.8-15.4V6.2C90.5,0.3,88-5.3,83.6-9.2 M87,30.2
						c-0.9,0.1-1.8,0.2-2.7,0.2c-3,0-6-0.7-8.7-2.1c-5.2-2.7-11.4-2.7-16.6,0c-2.7,1.4-5.7,2.1-8.7,2.1c-0.9,0-1.8-0.1-2.6-0.2
						c-0.3-1-0.5-2.1-0.7-3.2c1.1,0.2,2.2,0.3,3.3,0.3c3.4,0,6.7-0.8,9.7-2.3c4.5-2.5,10-2.5,14.5,0c3,1.5,6.3,2.3,9.7,2.3
						c1.1,0,2.3-0.1,3.4-0.3C87.5,28.1,87.3,29.1,87,30.2 M63.3,11.8l1-0.5c-0.4-0.9-0.6-2-0.5-3c0-2.6,2.3-3.5,3.6-3.9
						c1.3,0.3,3.6,1.3,3.6,3.9c0,1-0.2,2-0.5,3l1,0.5c0,0.5,0,0.9,0,1.4V21c-2.6-0.7-5.4-0.7-8,0v-7.8
						C63.3,12.7,63.3,12.3,63.3,11.8 M67.3,1.5c-1.8-5.2-5.8-9.3-10.9-11.3c1.1-0.6,2.3-1.1,3.5-1.5c2.4,1.1,4.6,2.7,6.4,4.7l1,1.1
						l1-1.1c1.8-2,3.9-3.6,6.4-4.7c1.2,0.4,2.4,0.9,3.5,1.5C73.1-7.8,69.1-3.7,67.3,1.5 M83.4,9.1c-1.3,2.3-1.3,4.9-1.3,7.8v7.6
						c-0.9-0.1-1.9-0.3-2.8-0.6v-8.8c0-3.7,0.4-6.5,1.3-8.1c1.2-2.2,2.9-4,6.8-5c0.2,1.2,0.4,2.3,0.4,3.5
						C85.9,6.2,84.4,7.5,83.4,9.1 M78.3,5.9c-1.1,2-1.6,5.1-1.6,9.3V23c-0.4-0.2-0.7-0.3-1.1-0.5c-0.5-0.2-1.1-0.5-1.7-0.7v-8.7
						c0-4,0.5-7,1.7-9.3c1.8-3.8,4.9-6,9.7-7c0.5,0.9,1,1.8,1.3,2.7C82.6,0.7,80,2.7,78.3,5.9 M60.7,21.8c-0.6,0.2-1.2,0.5-1.7,0.7
						c-0.3,0.1-0.7,0.3-1,0.4v-7.8c0-4.2-0.5-7.3-1.6-9.3C54.6,2.7,52,0.7,48-0.4c0.4-0.9,0.8-1.9,1.3-2.7c4.8,1,7.9,3.2,9.7,7
						c1.1,2.3,1.7,5.3,1.7,9.3L60.7,21.8z M54,7.1c0.8,1.6,1.3,4.4,1.3,8.1V24c-0.9,0.3-1.8,0.5-2.8,0.6v-7.6c0-2.9,0-5.5-1.3-7.8
						c-1-1.7-2.5-2.9-4.4-3.5c0-1.2,0.2-2.4,0.4-3.5C51.2,3.2,52.8,4.9,54,7.1 M49,10.4c1,1.7,1,3.8,1,6.5v7.8c-1,0-2.1-0.1-3.1-0.3
						V8.5C47.7,8.9,48.5,9.6,49,10.4 M87.8,24.3c-1,0.2-2.1,0.3-3.1,0.3v-7.8c0-2.7,0-4.8,1-6.5c0.5-0.8,1.2-1.5,2.1-1.9L87.8,24.3z
						 M83.7-5.4c-1.9,0.5-3.7,1.2-5.4,2.3c-2.2,1.4-3.9,3.5-5,5.8c-0.3,0.7-0.6,1.4-0.8,2.1c-0.7-1-1.6-1.7-2.7-2.2
						c1.7-5.2,6-9.2,11.4-10.5c0.3,0.2,0.5,0.4,0.8,0.6C82.5-6.7,83.1-6.1,83.7-5.4 M67.3-12.4c1.2,0,2.3,0.1,3.5,0.2
						c-1.3,0.8-2.4,1.7-3.5,2.8c-1.1-1.1-2.2-2-3.5-2.8C65-12.3,66.1-12.4,67.3-12.4 M52.8-7.3c0.3-0.2,0.5-0.4,0.8-0.6
						c5.3,1.3,9.6,5.3,11.4,10.5c-1.1,0.5-2,1.3-2.7,2.2c-0.2-0.7-0.5-1.4-0.8-2.1c-1.1-2.4-2.9-4.4-5-5.8C54.7-4.2,52.9-5,51-5.4
						C51.5-6.1,52.1-6.7,52.8-7.3 M75.6,39.7C70.4,37,64.2,37,59,39.7c-0.8,0.3-1.5,0.7-2.4,1c-1.2-0.6-2.3-1.3-3.3-2.2
						c2.3-0.4,4.6-1.1,6.7-2.1c4.5-2.5,10-2.5,14.5,0c2.1,1,4.4,1.7,6.8,2.1c-1,0.8-2.2,1.6-3.3,2.2C77.1,40.4,76.4,40,75.6,39.7
						 M67.3,43.2c-2.5,0-4.9-0.4-7.3-1.1c4.5-2.4,10-2.4,14.5,0C72.2,42.8,69.8,43.2,67.3,43.2L67.3,43.2z M83.8,36.1
						c-2.9-0.1-5.6-0.8-8.2-2.1c-5.2-2.7-11.4-2.7-16.6,0c-2.5,1.3-5.3,2-8.1,2.1c-0.8-1-1.5-2-2.1-3.1c0.5,0,1,0.1,1.5,0.1
						c3.4,0,6.7-0.8,9.7-2.3c4.5-2.5,10-2.5,14.5,0c3,1.5,6.3,2.3,9.7,2.3c0.5,0,1.1,0,1.6-0.1C85.3,34,84.6,35.1,83.8,36.1">
      </path>
      <path id="Tracé_103" class="st0" d="M16.4,72.9l-0.7-13.5L10,71.6H8.3L2.5,59.4L2,72.9h-2.1l1.2-17.8h2.8l6.1,13l5.9-13h2.6
						l1,17.8L16.4,72.9z">
      </path>
      <path id="Tracé_104" class="st0" d="M23.1,64.1c-0.2-5,3.7-9.3,8.7-9.5c0.1,0,0.3,0,0.4,0c5.5,0,9,3.4,9,9.2
						c0.2,5-3.7,9.3-8.7,9.5c-0.1,0-0.3,0-0.4,0C26.6,73.3,23.1,69.9,23.1,64.1 M37.9,64c0-4.1-1.8-7.7-5.6-7.7
						c-3.6,0-5.8,3.7-5.8,7.7c0,4.1,1.8,7.7,5.6,7.7C35.7,71.7,37.9,68,37.9,64">
      </path>
      <path id="Tracé_105" class="st0" d="M54.8,72.9l-4.3-7.2h-0.3c-0.6,0-1.1,0-1.7-0.1v7.3h-3.1V55.2c1.4-0.2,2.8-0.3,4.3-0.3
						c5,0,7.7,1.8,7.7,5.4c-0.1,2.3-1.6,4.3-3.8,4.9l4.9,7.8L54.8,72.9z M49.6,64.2c3.2,0,4.6-1.8,4.6-4c0-2.4-1.2-3.9-4.2-3.9
						c-0.4,0-0.8,0-1.4,0.1v7.8C48.9,64.1,49.2,64.2,49.6,64.2">
      </path>
      <path id="Tracé_106" class="st0" d="M60.9,64.1c-0.2-5,3.7-9.3,8.7-9.5c0.1,0,0.3,0,0.4,0c5.5,0,9,3.4,9,9.2
						c0.2,5-3.7,9.3-8.7,9.5c-0.1,0-0.3,0-0.4,0C64.3,73.3,60.9,69.9,60.9,64.1 M75.7,64c0-4.1-1.8-7.7-5.6-7.7
						c-3.6,0-5.8,3.7-5.8,7.7c0,4.1,1.8,7.7,5.6,7.7C73.5,71.7,75.7,68,75.7,64">
      </path>
      <path id="Tracé_107" class="st0" d="M82,64.2c-0.2-5.1,3.7-9.3,8.8-9.5c0.3,0,0.5,0,0.8,0c1.7,0,3.4,0.4,4.9,1.3l-0.9,1.6
						c-1.1-0.8-2.4-1.2-3.8-1.2c-4.1,0-6.3,3.4-6.3,7.5c0,4.1,2,7.6,6.1,7.6c1.5,0,3-0.4,4.2-1.3l0.8,1.4c-1.6,1.2-3.6,1.8-5.6,1.8
						C85.5,73.3,82,69.8,82,64.2">
      </path>
      <path id="Tracé_108" class="st0" d="M98.5,64.2c-0.2-5.1,3.7-9.3,8.8-9.5c0.3,0,0.5,0,0.8,0c1.7,0,3.4,0.4,4.9,1.3l-0.9,1.6
						c-1.1-0.8-2.4-1.2-3.8-1.2c-4.1,0-6.3,3.4-6.3,7.5c0,4.1,2,7.6,6.1,7.6c1.5,0,3-0.4,4.2-1.3l0.8,1.4c-1.6,1.2-3.6,1.8-5.6,1.8
						C102,73.3,98.5,69.8,98.5,64.2">
      </path>
      <path id="Tracé_109" class="st0" d="M114.9,64.1c-0.2-5,3.7-9.3,8.7-9.5c0.1,0,0.3,0,0.4,0c5.5,0,9,3.4,9,9.2
						c0.2,5-3.7,9.3-8.7,9.5c-0.1,0-0.3,0-0.4,0C118.3,73.3,114.9,69.9,114.9,64.1 M129.6,64c0-4.1-1.8-7.7-5.6-7.7
						c-3.6,0-5.8,3.7-5.8,7.7c0,4.1,1.8,7.7,5.6,7.7C127.5,71.7,129.6,68,129.6,64">
      </path>
     </g>
    </g>
   </g>
  </g>
 </g>
</svg>